<svg width="35" height="35" fill="none" xmlns="http://www.w3.org/2000/svg"><path d="M17.5 8.75a5.47 5.47 0 100 10.938 5.47 5.47 0 000-10.938zm0 8.75a3.28 3.28 0 110-6.562 3.28 3.28 0 010 6.562z" fill="#fff"/><path d="M17.5 2.188A15.313 15.313 0 1032.813 17.5 15.33 15.33 0 0017.5 2.187zM10.937 28.85v-1.506a3.285 3.285 0 013.282-3.282h6.562a3.285 3.285 0 013.282 3.282v1.506a13.014 13.014 0 01-13.125 0zm15.304-1.587a5.471 5.471 0 00-5.46-5.388H14.22a5.47 5.47 0 00-5.46 5.388 13.125 13.125 0 1117.483 0z" fill="#fff"/></svg>