<svg width="13" height="13" fill="none" xmlns="http://www.w3.org/2000/svg"><path d="M6.5.406A6.1 6.1 0 00.406 6.5 6.1 6.1 0 006.5 12.594 6.1 6.1 0 0012.594 6.5 6.1 6.1 0 006.5.406zm0 .938A5.15 5.15 0 0111.656 6.5 5.15 5.15 0 016.5 11.656 5.15 5.15 0 011.344 6.5 5.15 5.15 0 016.5 1.344zm-.044 2.343A2.806 2.806 0 003.643 6.5a2.806 2.806 0 002.813 2.813A2.809 2.809 0 008.99 7.686l-.85-.395a1.855 1.855 0 01-1.684 1.084c-1.067 0-1.875-.808-1.875-1.875s.808-1.875 1.875-1.875c.75 0 1.383.441 1.685 1.084l.85-.395a2.81 2.81 0 00-2.536-1.627z" fill="#fff"/></svg>