<svg width="30" height="30" fill="none" xmlns="http://www.w3.org/2000/svg"><path d="M15 7.5a4.687 4.687 0 100 9.374A4.687 4.687 0 0015 7.5zm0 7.5a2.813 2.813 0 110-5.625A2.813 2.813 0 0115 15z" fill="#fff"/><path d="M15 1.875A13.125 13.125 0 1028.125 15 13.14 13.14 0 0015 1.875zM9.375 24.728v-1.29a2.815 2.815 0 012.813-2.813h5.624a2.815 2.815 0 012.813 2.813v1.29a11.155 11.155 0 01-11.25 0zm13.117-1.36a4.69 4.69 0 00-4.68-4.618h-5.625a4.69 4.69 0 00-4.68 4.618 11.25 11.25 0 1114.986 0z" fill="#fff"/></svg>