<svg width="40" height="40" fill="none" xmlns="http://www.w3.org/2000/svg"><path d="M20 40c11.046 0 20-8.954 20-20S31.046 0 20 0 0 8.954 0 20s8.954 20 20 20z" fill="#FF9800"/><path d="M20 9.474a5.31 5.31 0 100 10.621 5.31 5.31 0 000-10.621zm0 7.957a2.647 2.647 0 110-5.294 2.647 2.647 0 010 5.294z" fill="#fff"/><path d="M27.826 20.908a1.799 1.799 0 00-2.452-.69c-3.616 2.027-7.132 2.027-10.747 0a1.807 1.807 0 00-2.622 2.072c.13.462.44.852.858 1.086a16.033 16.033 0 003.771 1.545l-2.558 2.558a1.792 1.792 0 002.535 2.534L20 26.61 23.39 30a1.792 1.792 0 002.534-2.534l-2.558-2.558a16.038 16.038 0 003.771-1.545 1.8 1.8 0 00.69-2.455z" fill="#fff"/></svg>