<svg width="40" height="40" fill="none" xmlns="http://www.w3.org/2000/svg"><path fill="#fff" d="M4 10h30v20H4z"/><path d="M20 0C8.954 0 0 8.954 0 20s8.954 20 20 20 20-8.954 20-20S31.046 0 20 0zm11.737 27.308l-3.45.047s-.742.148-1.716-.526c-1.292-.887-2.508-3.19-3.455-2.895-.947.295-.932 2.369-.932 2.369.003.243-.071.48-.213.679-.199.17-.445.277-.705.308h-1.529s-3.421.202-6.408-2.919c-3.284-3.39-6.176-10.16-6.176-10.16s-.17-.393.016-.658c.16-.23.557-.254.757-.264.864-.04 3.458-.023 3.458-.023.217-.006.363.006.632.123.23.115.406.285.518.558.4.994.863 1.961 1.387 2.895 1.542 2.666 2.26 3.248 2.784 2.963.76-.415.527-3.765.527-3.765s0-1.219-.384-1.758a1.734 1.734 0 00-1.14-.598c-.208-.029.134-.51.576-.726.664-.326 1.837-.326 3.221-.326a6.561 6.561 0 011.81.184c1.275.308.843 1.492.843 4.34 0 .91-.166 2.194.492 2.63.284.182.974.027 2.705-2.91a22.554 22.554 0 001.435-3.026 1.1 1.1 0 01.342-.418.89.89 0 01.502-.087l3.885-.027s1.165-.14 1.355.39c.19.529-.437 1.842-2.024 3.947-2.605 3.474-2.895 3.158-.731 5.155 2.065 1.919 2.494 2.853 2.565 2.969.858 1.416-.947 1.529-.947 1.529z" fill="#4C75A3"/></svg>