<svg width="40" height="40" fill="none" xmlns="http://www.w3.org/2000/svg"><path d="M20 40c11.046 0 20-8.954 20-20S31.046 0 20 0 0 8.954 0 20s8.954 20 20 20z" fill="#4CAF50"/><path d="M20 9.474a10.526 10.526 0 00-8.524 16.697l-1.316 3.91 4.05-1.294A10.525 10.525 0 1020 9.474zm5.595 14.886l-1.121 1.122c-1.18 1.178-4.306-.119-7.077-2.895-2.77-2.776-4.013-5.895-2.892-7.06l1.121-1.122a1.177 1.177 0 011.592 0l1.653 1.648a1.096 1.096 0 01-.413 1.826 1.071 1.071 0 00-.708 1.3c.294 1.237 1.887 2.771 3.068 3.066a1.124 1.124 0 001.287-.716 1.1 1.1 0 011.842-.413l1.65 1.652a1.177 1.177 0 01-.003 1.592z" fill="#fff"/></svg>